<svg version="1" xmlns="http://www.w3.org/2000/svg" width="682.667" height="682.667" viewBox="0 0 512.000000 512.000000"><path d="M179.4 3.5C110.5 21.3 52.1 68.9 21 132.5c-8.5 17.3-13.1 29.7-17.6 47.1L0 193.1V288.8l3.1 12.3c8.4 33.5 24.8 66.4 46.6 93.4 9.8 12.1 30.9 32.8 41.8 41 4.4 3.3 11.6 9.1 16 13 31.7 28 64.4 46 100.9 55.6 23.8 6.2 33.6 7.4 62.6 7.4s38.8-1.2 62.6-7.4c33.6-8.9 67.8-27 95.1-50.5 36.3-31.3 63.4-74.4 75.4-120 6.2-23.8 7.4-33.6 7.4-62.6 0-23.1-.3-28.1-2.3-39-8.7-48.8-27-86.3-60.7-124.5-3.9-4.4-9.7-11.6-13-16-8.1-10.8-28.8-32-40.6-41.5-27.5-22.1-60.2-38.5-93.8-46.9L288.8 0h-48.2l-48.1.1-13.1 3.4zM269 6.1C345.2 15 413.5 61.8 449.8 130c13.1 24.5 22 52.6 25.8 81.5 1.8 13.2 2 43.2.4 56.5-8.8 73.5-50.9 138.3-114.8 176.5-27.1 16.2-60.8 27.6-93.2 31.5-12 1.4-41.7 1.5-53.5 0-68.7-8.2-128.4-44-168-100.5C1.7 311.5-8 226.8 21.1 153.7 60.8 54.1 162.4-6.4 269 6.1z"/><path d="M194 136.1c-3.3 1.3-6.8 4.7-8.8 8.4-1.5 2.7-1.8 10.2-2.2 70.5l-.5 67.5-2.7 5.8c-3.8 8-11.7 16.1-19.7 20-6.2 3-7.2 3.2-17.6 3.2-10.5 0-11.4-.2-17.7-3.3-9.2-4.5-15.3-10.9-19.9-20.7-2.1-4.4-5-9.2-6.6-10.7-6.6-6.2-17.5-5.6-23.8 1.3-6.3 7-6 13.5 1.1 27.8 4 8.1 6.2 11 13.8 18.6 14 14 29.5 21 48.6 22.2 22.1 1.3 41.4-6.2 57.5-22.2 8.4-8.5 13.1-15.4 17.2-25.7 5-12.2 5.2-16.5 5.3-85.6 0-69.9.1-68-5.6-73.4-5-4.6-12.4-6.1-18.4-3.7zM289.5 136.4c-4 1.7-8.2 6.7-9.5 11.4-1.4 5.1-1.4 181.3 0 186.4 1.4 4.8 5.5 9.7 9.7 11.4 4.2 1.8 106.4 2.1 111 .3 9.7-3.6 14.1-15.5 9-24.3-2.7-4.8-6.2-7.5-11.3-8.6-2.1-.5-22-1-44.1-1H314v-80.8c0-49.9-.4-82.1-1-84.2-1.1-4.1-6.1-9.4-10.3-10.9-3.8-1.5-9.5-1.3-13.2.3z"/></svg>